An assassin is hired by a businessman to avenge the murder of his daughter by white slave traders in Thailand.

Director:
Prachya Pinkaew
Writer:
Kevin Bernhardt
Stars:
Kevin Bacon, Djimon Hounsou and Jirantanin Pitakporntrakul 

Media info;

General
Complete name                    : E:\torrent2\Elephant.White.2011.BluRay rip.MKV.1080p.AVC.AC3 5.1-ACB-Team\Elephant.White.2011.BluRay rip.MKV.1080p.AVC.AC3 5.1-ACB-Team.mkv
Format                           : Matroska
File size                        : 7.78 GiB
Duration                         : 1h 31mn
Overall bit rate                 : 12.2 Mbps
Movie name                       : movie
Encoded date                     : UTC 2011-05-12 07:37:06
Writing application              : mkvmerge v3.2.0 ('Beginnings') built on Feb 12 2010 16:46:17
Writing library                  : libebml v0.7.9 + libmatroska v0.8.1

Video
ID                               : 1
Format                           : AVC
Format/Info                      : Advanced Video Codec
Format profile                   : High@L4.1
Format settings, CABAC           : Yes
Format settings, ReFrames        : 3 frames
Format settings, GOP             : M=4, N=16
Muxing mode                      : Container profile=Unknown@0.0
Codec ID                         : V_MPEG4/ISO/AVC
Duration                         : 1h 31mn
Bit rate mode                    : Variable
Bit rate                         : 11.3 Mbps
Nominal bit rate                 : 12.0 Mbps
Maximum bit rate                 : 35.0 Mbps
Width                            : 1 920 pixels
Height                           : 1 080 pixels
Display aspect ratio             : 16:9
Frame rate                       : 23.976 fps
Color space                      : YUV
Chroma subsampling               : 4:2:0
Bit depth                        : 8 bits
Scan type                        : Progressive
Bits/(Pixel*Frame)               : 0.227
Stream size                      : 7.21 GiB (93%)
Writing library                  : x264 core 115 r1937 aa21558
Encoding settings                : cabac=1 / ref=1 / deblock=1:0:0 / analyse=0x3:0x3 / me=dia / subme=1 / psy=1 / psy_rd=0.00:0.00 / mixed_ref=0 / me_range=16 / chroma_me=1 / trellis=0 / 8x8dct=1 / cqm=0 / deadzone=21,11 / fast_pskip=1 / chroma_qp_offset=0 / threads=3 / sliced_threads=0 / slices=4 / nr=0 / decimate=1 / interlaced=0 / bluray_compat=1 / constrained_intra=0 / bframes=3 / b_pyramid=1 / b_adapt=1 / b_bias=0 / direct=1 / weightb=1 / open_gop=0 / weightp=1 / keyint=24 / keyint_min=1 / scenecut=40 / intra_refresh=0 / rc_lookahead=0 / rc=abr / mbtree=0 / bitrate=12024 / ratetol=1.0 / qcomp=0.60 / qpmin=0 / qpmax=69 / qpstep=4 / vbv_maxrate=35000 / vbv_bufsize=30000 / nal_hrd=vbr / ip_ratio=1.10 / pb_ratio=1.10 / aq=1:1.00

Audio
ID                               : 2
Format                           : AC-3
Format/Info                      : Audio Coding 3
Mode extension                   : CM (complete main)
Codec ID                         : A_AC3
Duration                         : 1h 31mn
Bit rate mode                    : Constant
Bit rate                         : 640 Kbps
Channel(s)                       : 6 channels
Channel positions                : Front: L C R, Side: L R, LFE
Sampling rate                    : 48.0 KHz
Bit depth                        : 16 bits
Stream size                      : 419 MiB (5%)
Language                         : English

Text #1
ID                               : 3
Format                           : VobSub
Muxing mode                      : zlib
Codec ID                         : S_VOBSUB
Codec ID/Info                    : The same subtitle format used on DVDs
Language                         : English

Text #2
ID                               : 4
Format                           : VobSub
Muxing mode                      : zlib
Codec ID                         : S_VOBSUB
Codec ID/Info                    : The same subtitle format used on DVDs
Language                         : Spanish

Text #3
ID                               : 5
Format                           : UTF-8
Codec ID                         : S_TEXT/UTF8
Codec ID/Info                    : UTF-8 Plain Text
Language                         : Dutch

Menu
00:00:00.000                     : en:00:00:00.000
00:01:44.312                     : en:00:01:44.312
00:10:08.190                     : en:00:10:08.190
00:18:12.591                     : en:00:18:12.591
00:27:24.017                     : en:00:27:24.017
00:35:48.813                     : en:00:35:48.813
00:44:07.811                     : en:00:44:07.811
00:53:17.193                     : en:00:53:17.193
01:02:08.224                     : en:01:02:08.224
01:11:35.958                     : en:01:11:35.958
01:18:21.488                     : en:01:18:21.488
01:25:15.777                     : en:01:25:15.777

